<svg xmlns="http://www.w3.org/2000/svg" xmlns:xlink="http://www.w3.org/1999/xlink" width="40" height="40" viewBox="0 0 40 40">
  <defs>
    <clipPath id="clip-path">
      <rect id="Rectangle_31" data-name="Rectangle 31" width="40" height="40" transform="translate(0)" fill="none"/>
    </clipPath>
  </defs>
  <g id="Layer_1" data-name="Layer 1" transform="translate(0.49)">
    <g id="Group_116" data-name="Group 116" transform="translate(-0.49)" clip-path="url(#clip-path)">
      <path id="Path_293" data-name="Path 293" d="M144.338,141.782H152.1a1.249,1.249,0,0,0,1.249-1.249c-.583-13.085,3.068-26.893-10.556-26.893a9.908,9.908,0,0,0-6.21,2.077c0-2.434-2.63-1.088-8.7-1.449a1.249,1.249,0,0,0-1.249,1.249c.5,23.59-1.122,26.265,1.249,26.265h7.761c2.254,0,.82-3.177,1.249-13.636,0-4.321,1.249-5.167,3.408-5.167,2.389,0,2.79,1.659,2.79,5.376.428,10.271-1,13.428,1.249,13.428Zm-4.039-21.3c-7.48,0-5.906,8.223-5.906,18.8h-5.263V116.764h4.954v2.161a1.325,1.325,0,0,0,2.463.584,6.929,6.929,0,0,1,6.245-3.373c5.872,0,8.058,2.885,8.058,10.657v12.491h-5.263C145.587,127.386,146.847,120.479,140.3,120.479Z" transform="translate(-113.378 -101.811)" fill="#b66c3b"/>
      <path id="Path_294" data-name="Path 294" d="M6.527,119.257c-2.37,0-.752,2.638-1.249,26.266a1.249,1.249,0,0,0,1.249,1.249h7.764c2.365,0,.746-2.64,1.249-26.266,0-2.156-3.132-.884-9.018-1.249Zm6.515,25.017H7.776V121.755h5.266Z" transform="translate(-4.653 -106.801)" fill="#b66c3b"/>
      <path id="Path_295" data-name="Path 295" d="M6.186,0c-7.62,0-7.575,11.539,0,11.539S13.815,0,6.186,0Zm0,9.041c-4.277,0-4.317-6.543,0-6.543S10.453,9.041,6.186,9.041Z" transform="translate(-0.437)" fill="#b66c3b"/>
    </g>
  </g>
</svg>
