<svg xmlns="http://www.w3.org/2000/svg" xmlns:xlink="http://www.w3.org/1999/xlink" version="1.1" x="0px" y="0px" viewBox="0 0 32 40" enable-background="new 0 0 32 32" xml:space="preserve"><path d="M16,0C7.176,0,0,7.176,0,16s7.176,16,16,16c8.824,0,16-7.176,16-16S24.824,0,16,0z M28.298,9.598h-6.21  c-0.274-1.669-0.65-3.196-1.121-4.513c-0.321-0.9-0.687-1.696-1.098-2.396C23.535,3.75,26.568,6.274,28.298,9.598z M20.456,16  c0,1.498-0.105,2.912-0.254,4.267h-8.019c-0.149-1.355-0.254-2.769-0.254-4.267c0-1.499,0.104-2.914,0.254-4.269h8.019  C20.353,13.086,20.456,14.501,20.456,16z M14.929,2.929c0.492-0.583,0.885-0.773,1.21-0.79c0.049,0,0.096,0.007,0.144,0.008  c0.317,0.032,0.705,0.227,1.173,0.781c0.515,0.609,1.051,1.602,1.504,2.873c0.387,1.082,0.709,2.372,0.959,3.796h-7.455  c0.25-1.424,0.574-2.714,0.96-3.796C13.879,4.531,14.415,3.539,14.929,2.929z M12.583,2.573c-0.441,0.727-0.827,1.563-1.167,2.513  c-0.47,1.316-0.847,2.844-1.121,4.513H3.7C5.5,6.139,8.714,3.551,12.583,2.573z M2.133,16c0-1.491,0.24-2.924,0.673-4.269h7.204  C9.871,13.089,9.794,14.519,9.794,16s0.077,2.907,0.216,4.267H2.806C2.373,18.922,2.133,17.491,2.133,16z M3.702,22.402h6.594  c0.274,1.671,0.65,3.201,1.121,4.519c0.339,0.949,0.726,1.782,1.167,2.506C8.716,28.449,5.503,25.86,3.702,22.402z M17.456,29.071  c-0.465,0.55-0.849,0.745-1.164,0.779c-0.052,0.001-0.102,0.008-0.152,0.008c-0.325-0.017-0.719-0.205-1.21-0.788  c-0.515-0.609-1.05-1.596-1.504-2.867c-0.386-1.082-0.712-2.375-0.962-3.802h7.458c-0.25,1.427-0.574,2.72-0.961,3.802  C18.507,27.475,17.971,28.461,17.456,29.071z M19.871,29.311c0.411-0.698,0.774-1.491,1.096-2.39  c0.471-1.318,0.849-2.848,1.123-4.519h6.206C26.566,25.724,23.536,28.25,19.871,29.311z M22.373,20.267  c0.14-1.359,0.217-2.785,0.217-4.267s-0.077-2.911-0.217-4.269h6.818c0.434,1.345,0.673,2.778,0.673,4.269s-0.239,2.922-0.673,4.267  H22.373z"/><text x="0" y="47" fill="#000000" font-size="5px" font-weight="bold" font-family="'Helvetica Neue', Helvetica, Arial-Unicode, Arial, Sans-serif">Created by karacis studio</text><text x="0" y="52" fill="#000000" font-size="5px" font-weight="bold" font-family="'Helvetica Neue', Helvetica, Arial-Unicode, Arial, Sans-serif">from the Noun Project</text></svg>