<svg id="noun_website_3977699" xmlns="http://www.w3.org/2000/svg" width="24" height="24" viewBox="0 0 24 24">
  <path id="Path_296" data-name="Path 296" d="M12,0A12,12,0,1,0,24,12,12.012,12.012,0,0,0,12,0Zm9.223,7.2H16.566a19.578,19.578,0,0,0-.841-3.385,10.522,10.522,0,0,0-.824-1.8A10.392,10.392,0,0,1,21.223,7.2ZM15.342,12a29.058,29.058,0,0,1-.19,3.2H9.137a29.058,29.058,0,0,1-.19-3.2,28.892,28.892,0,0,1,.19-3.2h6.014A28.711,28.711,0,0,1,15.342,12ZM11.2,2.2A1.35,1.35,0,0,1,12.1,1.6c.037,0,.072.005.108.006a1.4,1.4,0,0,1,.88.586A7.2,7.2,0,0,1,14.22,4.351,17.666,17.666,0,0,1,14.939,7.2H9.348a17.742,17.742,0,0,1,.72-2.847A7.26,7.26,0,0,1,11.2,2.2ZM9.437,1.93a10.352,10.352,0,0,0-.875,1.885A19.63,19.63,0,0,0,7.721,7.2H2.775A10.382,10.382,0,0,1,9.437,1.93ZM1.6,12a10.427,10.427,0,0,1,.5-3.2h5.4a31.706,31.706,0,0,0,0,6.4H2.1A10.418,10.418,0,0,1,1.6,12Zm1.177,4.8H7.722a19.616,19.616,0,0,0,.841,3.389,10.2,10.2,0,0,0,.875,1.88A10.387,10.387,0,0,1,2.776,16.8Zm10.315,5a1.4,1.4,0,0,1-.873.584c-.039,0-.076.006-.114.006A1.345,1.345,0,0,1,11.2,21.8a7.179,7.179,0,0,1-1.128-2.15A17.735,17.735,0,0,1,9.348,16.8h5.594a17.66,17.66,0,0,1-.721,2.852A7.184,7.184,0,0,1,13.092,21.8Zm1.811.18a10.5,10.5,0,0,0,.822-1.792,19.612,19.612,0,0,0,.842-3.389h4.654A10.393,10.393,0,0,1,14.9,21.983ZM16.78,15.2a31.251,31.251,0,0,0,.163-3.2,31.27,31.27,0,0,0-.163-3.2h5.113a10.4,10.4,0,0,1,0,6.4Z" fill="#b66c3b"/>
</svg>
