<svg xmlns="http://www.w3.org/2000/svg" xmlns:xlink="http://www.w3.org/1999/xlink" width="40" height="39" viewBox="0 0 40 39">
  <defs>
    <clipPath id="clip-path">
      <rect id="Rectangle_30" data-name="Rectangle 30" width="40" height="39" transform="translate(0 0.001)" fill="none"/>
    </clipPath>
  </defs>
  <g id="Layer_2" data-name="Layer 2" transform="translate(0.54 0.769)">
    <g id="Layer_1" data-name="Layer 1" transform="translate(-0.54 -0.769)">
      <g id="Group_115" data-name="Group 115" transform="translate(0 0)" clip-path="url(#clip-path)">
        <path id="Path_289" data-name="Path 289" d="M.843,17.438c-1.3,8.2,2.34,18.086,13.577,21.734a3.118,3.118,0,0,0,.56.053,2.135,2.135,0,0,0,2.206-2.172c-.162-.874.64-4.415-1.537-3.938-4.209.9-4.714-1.456-5.356-2.685a5.306,5.306,0,0,0,6.6,1.368c1.142-.5.545-1.775,1.087-2.244A1.253,1.253,0,0,0,17.3,27.36C13.434,26.934,9.85,25.689,9.85,19.5c0-3.623,2.515-3.948,1.821-5.463A4.89,4.89,0,0,1,11.6,10.95c2.371.438,3.462,2.139,4.6,1.833a16.849,16.849,0,0,1,8.739,0c1.176.313,2.017-1.339,4.575-1.843.731,2.764-.791,3.439.171,4.473a5.821,5.821,0,0,1,1.593,4.09c0,9.3-7.882,6.612-8.523,8.723a1.253,1.253,0,0,0,.393,1.323c1.019.857.886,3.058.777,4.827-.112,1.835-.209,3.417.805,4.31a2.315,2.315,0,0,0,2.145.418C37.954,35.544,41.624,25.7,40.34,17.52,36.835-4.817,4.366-4.789.843,17.438Zm13.814,18.34.006.844A19.754,19.754,0,0,1,12.2,35.578a7.716,7.716,0,0,0,2.458.2Zm.617-6.183-.025.134a2.606,2.606,0,0,1-3.27-1.253,11.626,11.626,0,0,0,3.3,1.127ZM20.582,3.3c19.773,0,24.23,27.182,5.8,33.321a15.047,15.047,0,0,1,.036-2.089,12.683,12.683,0,0,0-.356-4.987c8.5-1.77,9.213-11.106,5.939-15.266.405-1.591.242-5.326-1.219-5.786-.344-.1-2.181-.509-5.744,1.733a19.478,19.478,0,0,0-8.959,0C14.3,9.11,10.291,7.3,9.522,9.222A8.1,8.1,0,0,0,9.1,14.285C6.2,17.968,7.07,24.134,10,27.027c-1.66-.793-3.946-1.064-4.439.522-.538,1.734,1.528,1.524,2.809,4.686a4.409,4.409,0,0,0,.693,1.317C-2.319,24.253,3.172,3.3,20.582,3.3Z" transform="translate(-0.53 -0.688)" fill="#b66c3b"/>
      </g>
    </g>
  </g>
</svg>
