<svg id="Layer_2" data-name="Layer 2" xmlns="http://www.w3.org/2000/svg" width="40.048" height="40.048" viewBox="0 0 40.048 40.048">
  <g id="Layer_1" data-name="Layer 1">
    <path id="Path_290" data-name="Path 290" d="M7.926,40.048h24.2a7.936,7.936,0,0,0,7.926-7.926V7.926A7.936,7.936,0,0,0,32.122,0H7.926A7.936,7.936,0,0,0,0,7.926v24.2a7.936,7.936,0,0,0,7.926,7.926ZM2.5,7.926A5.429,5.429,0,0,1,7.926,2.5h24.2a5.429,5.429,0,0,1,5.423,5.423v24.2a5.429,5.429,0,0,1-5.423,5.423H7.926A5.429,5.429,0,0,1,2.5,32.122Z" fill="#b66c3b"/>
    <path id="Path_291" data-name="Path 291" d="M104.149,114.378A10.229,10.229,0,1,0,93.92,104.149,10.229,10.229,0,0,0,104.149,114.378Zm0-17.955a7.726,7.726,0,1,1-7.726,7.726,7.726,7.726,0,0,1,7.726-7.726Z" transform="translate(-84.125 -84.125)" fill="#b66c3b"/>
    <path id="Path_292" data-name="Path 292" d="M268.964,68.463a2.872,2.872,0,1,0-2.884-2.871A2.815,2.815,0,0,0,268.964,68.463Zm.3-3.147c.528.465-.676,1.03-.676.276C268.583,65.143,269.2,65.26,269.259,65.317Z" transform="translate(-238.33 -56.179)" fill="#b66c3b"/>
  </g>
</svg>
